<svg fill="none" height="16" viewBox="0 0 21 16" width="21" xmlns="http://www.w3.org/2000/svg"><path d="m20.6157 7.7764-7.5388-7.7018658c-.065-.0496895-.1382-.0745342-.2195-.0745342-.0651 0-.1302.0331263-.1952.0993789-.0488.0496891-.0732.1159421-.0732.1987581 0 .066252.0244.132505.0732.198757l7.124 7.229816h-19.51783c-.081324 0-.146384.03312-.1951782.09938-.0487945.04969-.0731918.11594-.0731918.19876 0 .06625.0243973.1325.0731918.19875.0487942.04969.1138542.07454.1951782.07454h19.49343l-7.0752 7.20496c-.0488.0663-.0732.1408-.0732.2236 0 .0663.0244.1325.0732.1988.0488.0497.1138.0745.1952.0745.0813 0 .1463-.0331.1951-.0994l7.5144-7.62731c.1139-.06625.1627-.14907.1464-.24844 0-.09938-.0407-.1822-.122-.24845z" fill="#fff"/></svg>