<svg fill="none" height="75" viewBox="0 0 130 75" width="130"
xmlns="http://www.w3.org/2000/svg">
  <path d="m7.61239 13.2969h.20153l14.58618
  21.4275h6.8055v-34.605886h-7.8645l.2023
  21.327086h-.2023l-14.3839-21.327086h-6.9572v34.605886h7.81392zm37.84451-3.72375c-3.9998
  0-7.2093 1.17385-9.6293 3.52065-2.4199 2.3137-3.6299 5.4826-3.6299 9.5068 0
  4.1585 1.1602 7.3266 3.479 9.5067 2.318 2.146 5.5955 3.2195 9.8293 3.2195
  3.3612 0 6.1336-.7708 8.3189-2.3137 2.2176-1.5422 3.5446-3.4535
  3.9816-5.7339h-7.2085c-.739 1.8773-2.3868 2.8164-4.9403 2.8164-3.4956
  0-5.4445-2.0623-5.8484-6.1869h18.3505v-1.8109c0-3.9902-1.1254-7.0753-3.3778-9.2553-2.2502-2.1793-5.3593-3.26935-9.3251-3.26935zm-5.4445
  9.95965c.7397-3.2527 2.555-4.8794 5.4452-4.8794 2.8903 0 4.5539 1.6267 4.9902
  4.8794zm24.192 6.1363c0 3.4202.6544 5.7845 1.9671 7.0926 1.3443 1.3075 3.7982
  1.9619 7.3603 1.9619h1.9829v-5.8849h-2.4691c-1.3465
  0-.1517-.268-.6242-.8047-.4703-.5367-.7065-1.475-.7065-2.8163v-9.6087h3.7998v-5.432h-3.7998v-7.4444h-7.5105v7.4444h-4.6384v5.432h4.6384zm14.5862-15.4921h7.4614v24.5459h-7.4614zm-.2023-10.177h7.8645v6.53861h-7.8645zm12.4017
  0h7.4622v34.7229h-7.4622zm-62.5725 57.2419c1.2432-1.8456 1.866-3.9902
  1.866-6.4375
  0-3.4542-1.1428-6.1513-3.4284-8.0989-2.2509-1.9445-5.5118-2.9168-9.7795-2.9168h-17.0756v34.6029h7.81241v-12.071h7.65009l7.6622
  12.071h8.5197l-8.5197-13.0765c2.3188-.8726 4.0836-2.2306
  5.2928-4.0732zm-7.6101-2.3657c-.9744.9745-2.3694 1.4606-4.184
  1.4606h-8.80948v-10.4624h8.80948c1.7807 0 3.1756.4507 4.184 1.358 1.0085.9074
  1.5127 2.1318 1.5127 3.6717 0 1.6433-.5042 2.9681-1.5127
  3.9721zm24.7506-5.6343c-3.1928 0-5.8476.7382-7.9648 2.2155-2.0849
  1.4735-3.2269 3.6218-3.4284 6.4382h7.007c.2023-2.414 1.6629-3.6211
  4.3862-3.6211 1.3444 0 2.3355.3352 2.9733 1.0055.6733.6356 1.0084 1.5075
  1.0084 2.6156 0 .6016-.2015 1.0394-.6046
  1.3059-.4038.2672-1.2266.4861-2.4698.653l-4.6882.705c-2.9241.434-5.0754
  1.2576-6.4537 2.4646-1.3436 1.207-2.0161 2.8647-2.0161 4.9821 0 2.1446.7065
  3.8559 2.118 5.1308 1.4108 1.241 3.4948 1.863 6.2499 1.863 3.7983 0
  6.4696-1.21
  8.0155-3.6233h.203v3.0149h7.1573v-16.2454c.0007-5.9362-3.83-8.9043-11.493-8.9043zm3.9825
  15.3901c0 1.7769-.5541 3.1206-1.6636 4.0234-1.0757.8719-2.3521 1.3104-3.8308
  1.3104-2.2516 0-3.3778-.9201-3.3778-2.7665 0-1.6102 1.0583-2.5847
  3.1755-2.9198l3.3786-.5028c1.1089-.1676 1.881-.5533
  2.3181-1.1549zm29.1656-17.5188c0 3.3531.12 4.0098.3532
  6.1528h-.2015c-1.4115-2.6805-3.9304-4.0241-7.5626-4.0241-3.3272 0-6.1005
  1.176-8.3181 3.5214-2.1852 2.3152-3.2775 5.4992-3.2775 9.5565 0 4.0242 1.0583
  7.1425 3.1756 9.3573 2.152 2.2117 4.8218 3.3199 8.0154 3.3199 3.8987 0
  6.5549-1.3437
  7.9664-4.0242h.2016v3.4173h7.1579v-34.7214h-7.5112v7.4445zm-1.5625
  20.3895c-1.0085 1.3392-2.3845 2.0102-4.1319
  2.0102s-3.128-.6348-4.1357-1.9105c-.9745-1.3082-1.4598-3.0663-1.4598-5.2818
  0-2.2472.5019-4.0725 1.5104-5.478 1.0077-1.4086 2.3709-2.1136 4.0851-2.1136
  1.7466 0 3.1257.6831 4.1319 2.0592 1.0416 1.3422 1.5625 3.1206 1.5625 5.3324 0
  2.2132-.5209 4.0075-1.5625
  5.3821zm13.8464-17.6569h7.4614v24.5435h-7.4614zm-.1992-10.1771h7.8622v6.5386h-7.8622zm25.7502
  9.5732c-3.968 0-7.21 1.1572-9.733 3.4708-2.518 2.2805-3.779 5.4162-3.779
  9.4063 0 4.0574 1.227 7.2263 3.681 9.5068 2.453 2.2472 5.73 3.3727 9.83 3.3727
  3.964 0 7.189-1.1429 9.676-3.4225 2.522-2.3137 3.784-5.466 3.784-9.4562
  0-4.0559-1.227-7.2074-3.68-9.4554-2.453-2.2819-5.713-3.4225-9.779-3.4225zm4.234
  18.3091c-1.041 1.3082-2.453 1.9619-4.233 1.9619-1.782
  0-3.196-.6552-4.235-1.9619-1.042-1.3429-1.563-3.1523-1.563-5.432
  0-2.2796.521-4.0724 1.563-5.3821 1.039-1.3052 2.453-1.9619 4.235-1.9619 1.78 0
  3.192.656 4.233 1.9619 1.042 1.2727 1.563 3.0685 1.563 5.3821 0 2.2797-.521
  4.0891-1.563 5.432z" fill="#fff" />
</svg>
